<?xml version="1.0" encoding="utf-8"?>
<!-- Generator: Adobe Illustrator 22.0.1, SVG Export Plug-In . SVG Version: 6.00 Build 0)  -->
<svg version="1.1" id="Layer_1" xmlns="http://www.w3.org/2000/svg" xmlns:xlink="http://www.w3.org/1999/xlink" x="0px" y="0px"
	 viewBox="0 0 512 338" style="enable-background:new 0 0 512 338;" xml:space="preserve">
<style type="text/css">
	.st0{fill:#D0E2F6;}
	.st1{fill:#0087E2;}
	.st2{fill:#FFFFFF;}
	.st3{fill:#48D0AC;}
</style>
<g>
	<g>
		<g>
			<path class="st0" d="M409,264.5h-3v-29h38c16.8,0,30.5-13.7,30.5-30.5V62.5c0-16.8-13.7-30.5-30.5-30.5h-84.2l-0.4-0.9
				c-2.9-6.4-9.3-10.6-16.4-10.6s-13.5,4.2-16.4,10.6l-0.4,0.9H291c-16.8,0-30.5,13.7-30.5,30.5h-3c0-18.5,15-33.5,33.5-33.5h33.3
				c3.6-7,10.8-11.5,18.7-11.5S358.1,22,361.7,29H444c18.5,0,33.5,15,33.5,33.5V205c0,18.5-15,33.5-33.5,33.5h-35V264.5z"/>
		</g>
		<g>
			<path class="st0" d="M73.5,336.5h-3V253c0-9.6,7.9-17.5,17.5-17.5h305v30h-3v-27H88c-8,0-14.5,6.5-14.5,14.5V336.5z"/>
		</g>
		<g>
			<path class="st0" d="M57.5,336.5h-3V253c0-18.5,15-33.5,33.5-33.5h356c8,0,14.5-6.5,14.5-14.5V62.5c0-8-6.5-14.5-14.5-14.5h-82.3
				c-3.6,7-10.8,11.5-18.7,11.5S327.9,55,324.3,48H291c-8,0-14.5,6.5-14.5,14.5h-3c0-9.6,7.9-17.5,17.5-17.5h35.2l0.4,0.9
				c2.9,6.4,9.3,10.6,16.4,10.6s13.5-4.2,16.4-10.6l0.4-0.9H444c9.6,0,17.5,7.9,17.5,17.5V205c0,9.6-7.9,17.5-17.5,17.5H88
				c-16.8,0-30.5,13.7-30.5,30.5V336.5z"/>
		</g>
	</g>
	<g>
		<path class="st1" d="M455,338c-0.8,0-1.5-0.7-1.5-1.5V266H368c-0.8,0-1.5-0.7-1.5-1.5s0.7-1.5,1.5-1.5h87c0.8,0,1.5,0.7,1.5,1.5
			v72C456.5,337.3,455.8,338,455,338z"/>
	</g>
	<g>
		<path class="st2" d="M346,18.5v-11h15c1.7,0,3-1.3,3-3v0c0-1.7-1.3-3-3-3h-36c-1.7,0-3,1.3-3,3v0c0,1.7,1.3,3,3,3h15v11"/>
		<path class="st0" d="M347.5,18.5h-3V6H361c0.8,0,1.5-0.7,1.5-1.5S361.8,3,361,3h-36c-0.8,0-1.5,0.7-1.5,1.5S324.2,6,325,6h16.5
			v12.5h-3V9H325c-2.5,0-4.5-2-4.5-4.5s2-4.5,4.5-4.5h36c2.5,0,4.5,2,4.5,4.5S363.5,9,361,9h-13.5V18.5z"/>
	</g>
	<g>
		
			<rect x="414.5" y="117" transform="matrix(6.123234e-17 -1 1 6.123234e-17 293.5002 551.4999)" class="st2" width="16" height="24"/>
		<path class="st0" d="M436,138.5h-27v-19h27V138.5z M412,135.5h21v-13h-21V135.5z"/>
	</g>
	<g>
		<path class="st0" d="M193.2,122.2c1.9-2.2,4.4-3.7,7-4.8c0.4-0.2,0.8-0.4,1.2-0.6l3-3.9H78c-11,0-20,9-20,20h130.5
			C188.9,129,190.5,125.3,193.2,122.2z"/>
	</g>
	<g>
		<path class="st2" d="M97,134.5v137c0,6.6,5.4,12,12,12h120v-150"/>
		<path class="st1" d="M229,285H109c-7.4,0-13.5-6.1-13.5-13.5v-137c0-0.8,0.7-1.5,1.5-1.5s1.5,0.7,1.5,1.5v137
			c0,5.8,4.7,10.5,10.5,10.5h118.5V133.5c0-0.8,0.7-1.5,1.5-1.5s1.5,0.7,1.5,1.5v150C230.5,284.3,229.8,285,229,285z"/>
	</g>
	<g>
		<path class="st1" d="M279,320.5h-24c-4.4,0-8-3.6-8-8l0,0h40l0,0C287,316.9,283.4,320.5,279,320.5z"/>
		<path class="st1" d="M279,322h-24c-5.2,0-9.5-4.3-9.5-9.5c0-0.8,0.7-1.5,1.5-1.5h40c0.8,0,1.5,0.7,1.5,1.5
			C288.5,317.7,284.2,322,279,322z M248.7,314c0.7,2.9,3.3,5,6.3,5h24c3.1,0,5.6-2.1,6.3-5H248.7z"/>
	</g>
	<g>
		<path class="st2" d="M366.5,312.5h-200v-124c0-8.8,7.2-16,16-16h168c8.8,0,16,7.2,16,16V312.5z"/>
		<path class="st1" d="M368,314H165V188.5c0-9.6,7.9-17.5,17.5-17.5h168c9.6,0,17.5,7.9,17.5,17.5V314z M168,311h197V188.5
			c0-8-6.5-14.5-14.5-14.5h-168c-8,0-14.5,6.5-14.5,14.5V311z"/>
	</g>
	<g>
		<path class="st1" d="M374,338H158c-14.1,0-25.5-11.4-25.5-25.5c0-0.8,0.7-1.5,1.5-1.5h264c0.8,0,1.5,0.7,1.5,1.5
			C399.5,326.6,388.1,338,374,338z M135.5,314c0.8,11.7,10.5,21,22.5,21h216c11.9,0,21.7-9.3,22.5-21H135.5z"/>
	</g>
	<g>
		<path class="st0" d="M369.5,322.5h-25c-0.8,0-1.5-0.7-1.5-1.5s0.7-1.5,1.5-1.5h25c0.8,0,1.5,0.7,1.5,1.5S370.3,322.5,369.5,322.5z
			"/>
	</g>
	<g>
		<path class="st0" d="M386.5,322.5h-8c-0.8,0-1.5-0.7-1.5-1.5s0.7-1.5,1.5-1.5h8c0.8,0,1.5,0.7,1.5,1.5S387.3,322.5,386.5,322.5z"
			/>
	</g>
	<g>
		<circle class="st1" cx="267" cy="178.5" r="2"/>
	</g>
	<g>
		<path class="st1" d="M229,136c-0.8,0-1.5-0.7-1.5-1.5c0-10.2-8.3-18.5-18.5-18.5s-18.5,8.3-18.5,18.5c0,0.8-0.7,1.5-1.5,1.5H58
			c-0.8,0-1.5-0.7-1.5-1.5c0-11.9,9.6-21.5,21.5-21.5c0.8,0,1.5,0.7,1.5,1.5S78.8,116,78,116c-9.7,0-17.7,7.5-18.4,17h128
			c0.8-11.2,10.1-20,21.4-20c11.9,0,21.5,9.6,21.5,21.5C230.5,135.3,229.8,136,229,136z"/>
	</g>
	<g>
		<rect x="78" y="113" class="st1" width="132" height="3"/>
	</g>
	<g>
		<path class="st3" d="M110,270c-0.4,0-0.8-0.1-1.1-0.4c-0.6-0.6-0.6-1.5,0-2.1l12-12c0.6-0.6,1.5-0.6,2.1,0c0.6,0.6,0.6,1.5,0,2.1
			l-12,12C110.8,269.9,110.4,270,110,270z"/>
	</g>
	<g>
		<path class="st3" d="M122,270c-0.4,0-0.8-0.1-1.1-0.4l-12-12c-0.6-0.6-0.6-1.5,0-2.1c0.6-0.6,1.5-0.6,2.1,0l12,12
			c0.6,0.6,0.6,1.5,0,2.1C122.8,269.9,122.4,270,122,270z"/>
	</g>
	<g>
		<path class="st0" d="M160.5,270.5h-6c-0.8,0-1.5-0.7-1.5-1.5s0.7-1.5,1.5-1.5h6c0.8,0,1.5,0.7,1.5,1.5S161.3,270.5,160.5,270.5z
			 M148.5,270.5h-6c-0.8,0-1.5-0.7-1.5-1.5s0.7-1.5,1.5-1.5h6c0.8,0,1.5,0.7,1.5,1.5S149.3,270.5,148.5,270.5z M136.5,270.5h-6
			c-0.8,0-1.5-0.7-1.5-1.5s0.7-1.5,1.5-1.5h6c0.8,0,1.5,0.7,1.5,1.5S137.3,270.5,136.5,270.5z"/>
	</g>
	<g>
		<path class="st0" d="M357,304H177c-0.8,0-1.5-0.7-1.5-1.5v-118c0-0.8,0.7-1.5,1.5-1.5h180c0.8,0,1.5,0.7,1.5,1.5v118
			C358.5,303.3,357.8,304,357,304z M178.5,301h177V186h-177V301z"/>
	</g>
	<g>
		<circle class="st3" cx="360.5" cy="179" r="19"/>
		<path class="st1" d="M360.5,199.5c-11.3,0-20.5-9.2-20.5-20.5s9.2-20.5,20.5-20.5S381,167.7,381,179S371.8,199.5,360.5,199.5z
			 M360.5,161.5c-9.6,0-17.5,7.9-17.5,17.5s7.9,17.5,17.5,17.5S378,188.6,378,179S370.1,161.5,360.5,161.5z"/>
	</g>
	<g>
		<path class="st2" d="M358.7,186.5c-0.4,0-0.7-0.1-1-0.4l-6.2-5.4c-0.6-0.5-0.7-1.5-0.1-2.1c0.5-0.6,1.5-0.7,2.1-0.1l5,4.4
			l8.3-11.1c0.5-0.7,1.4-0.8,2.1-0.3c0.7,0.5,0.8,1.4,0.3,2.1l-9.3,12.4c-0.3,0.3-0.6,0.5-1,0.6
			C358.8,186.5,358.8,186.5,358.7,186.5z"/>
	</g>
	<g>
		<circle class="st2" cx="390" cy="129.5" r="28"/>
		<path class="st0" d="M390,159c-16.3,0-29.5-13.2-29.5-29.5S373.7,100,390,100s29.5,13.2,29.5,29.5S406.3,159,390,159z M390,103
			c-14.6,0-26.5,11.9-26.5,26.5S375.4,156,390,156s26.5-11.9,26.5-26.5S404.6,103,390,103z"/>
	</g>
	<g>
		<path class="st3" d="M284.4,143.8l-1.1,1.1c-9,9-23.5,9-32.5,0l-1.1-1.1c-9-9-9-23.5,0-32.5L267,93.9l17.4,17.4
			C293.4,120.3,293.4,134.8,284.4,143.8z"/>
		<path class="st1" d="M267,153.2c-6.3,0-12.5-2.4-17.3-7.2l-1.1-1.1c-4.6-4.6-7.2-10.8-7.2-17.3s2.5-12.7,7.2-17.3l17.4-17.4
			c0.6-0.6,1.6-0.6,2.1,0l17.4,17.4c4.6,4.6,7.2,10.8,7.2,17.3s-2.5,12.7-7.2,17.3l-1.1,1.1C279.5,150.8,273.3,153.2,267,153.2z
			 M267,96l-16.3,16.3c-4.1,4.1-6.3,9.5-6.3,15.2s2.2,11.1,6.3,15.2l1.1,1.1c8.4,8.4,22,8.4,30.4,0l1.1-1.1l0,0
			c4.1-4.1,6.3-9.5,6.3-15.2s-2.2-11.1-6.3-15.2L267,96z"/>
	</g>
	<g>
		<g>
			<path class="st2" d="M271.3,119.4c-0.5,0.6-1.4,0.6-2,0.2c-0.1-0.1-0.3-0.1-0.4-0.2c-0.6-0.2-1.2-0.4-1.8-0.4
				c-0.4,0-0.7,0-1.1,0.1c-0.4,0.1-0.7,0.2-1,0.4c-0.3,0.2-0.5,0.4-0.7,0.7c-0.2,0.3-0.3,0.7-0.3,1.1c0,0.6,0.2,1.1,0.6,1.4
				c0.4,0.3,1,0.6,1.6,0.9c0.6,0.2,1.3,0.5,2.1,0.7s1.5,0.5,2.1,0.9c0.6,0.4,1.2,0.9,1.6,1.6c0.4,0.7,0.6,1.5,0.6,2.6
				c0,1-0.2,1.9-0.5,2.6c-0.4,0.7-0.9,1.3-1.5,1.8c-0.6,0.5-1.3,0.8-2.1,1.1c-0.8,0.2-1.7,0.4-2.6,0.4c-1.1,0-2.2-0.2-3.3-0.6
				c-0.4-0.2-0.9-0.4-1.3-0.6c-0.9-0.6-0.9-1.8-0.2-2.5v0c0.6-0.6,1.5-0.6,2.2-0.1c0.2,0.1,0.4,0.3,0.6,0.4c0.7,0.3,1.3,0.5,2.1,0.5
				c0.4,0,0.8-0.1,1.1-0.2c0.4-0.1,0.7-0.3,1-0.5c0.3-0.2,0.6-0.5,0.8-0.8c0.2-0.3,0.3-0.7,0.3-1.1c0-0.7-0.2-1.2-0.6-1.6
				c-0.4-0.4-1-0.7-1.6-0.9c-0.6-0.3-1.3-0.5-2.1-0.7c-0.8-0.2-1.5-0.5-2.1-0.9c-0.6-0.4-1.2-0.9-1.6-1.6c-0.4-0.6-0.7-1.5-0.7-2.6
				c0-1,0.2-1.8,0.6-2.5c0.4-0.7,0.9-1.3,1.5-1.7c0.6-0.5,1.4-0.8,2.2-1c0.8-0.2,1.6-0.3,2.5-0.3c1,0,1.9,0.1,2.8,0.4
				c0.3,0.1,0.5,0.2,0.8,0.3C271.9,117.3,272.1,118.6,271.3,119.4L271.3,119.4z"/>
		</g>
	</g>
	<g>
		<path class="st0" d="M390.2,134.2L390.2,134.2c-2.7,0.3-5.1-1.7-5.4-4.4l0,0c-0.2-1.7,0.5-3.3,1.8-4.3l18.3-14.8l-10.8,20.9
			C393.3,133,391.9,134,390.2,134.2z"/>
	</g>
	<g>
		<path class="st0" d="M390,141.5c-6.6,0-12-5.4-12-12c0-6.6,5.4-12,12-12c0.5,0,1,0,1.5,0.1l7.4-6c-2.7-1.3-5.7-2.1-8.9-2.1
			c-11,0-20,9-20,20s9,20,20,20V141.5z"/>
	</g>
	<g>
		<path class="st2" d="M281,72.5h-28c-3.3,0-6-2.7-6-6v0c0-3.3,2.7-6,6-6h28c3.3,0,6,2.7,6,6v0C287,69.8,284.3,72.5,281,72.5z"/>
		<path class="st0" d="M281,74h-28c-4.1,0-7.5-3.4-7.5-7.5s3.4-7.5,7.5-7.5h28c4.1,0,7.5,3.4,7.5,7.5S285.1,74,281,74z M253,62
			c-2.5,0-4.5,2-4.5,4.5s2,4.5,4.5,4.5h28c2.5,0,4.5-2,4.5-4.5s-2-4.5-4.5-4.5H253z"/>
	</g>
	<g>
		<path class="st2" d="M486.5,169h-38c-1.7,0-3-1.3-3-3l0,0c0-1.7,1.3-3,3-3h38c1.7,0,3,1.3,3,3l0,0
			C489.5,167.7,488.2,169,486.5,169z"/>
		<path class="st0" d="M486.5,170.5h-38c-2.5,0-4.5-2-4.5-4.5s2-4.5,4.5-4.5h38c2.5,0,4.5,2,4.5,4.5S489,170.5,486.5,170.5z
			 M448.5,164.5c-0.8,0-1.5,0.7-1.5,1.5s0.7,1.5,1.5,1.5h38c0.8,0,1.5-0.7,1.5-1.5s-0.7-1.5-1.5-1.5H448.5z"/>
	</g>
	<g>
		<polygon class="st2" points="452.3,94.5 452.3,112 434,112 434,144 452.3,144 452.3,162.5 484,162.5 484,94.5 		"/>
		<path class="st0" d="M485.5,164h-34.7v-18.5h-18.3v-35h18.3V93h34.7V164z M453.8,161h28.7V96h-28.7v17.5h-18.3v29h18.3V161z"/>
	</g>
	<g>
		<path class="st2" d="M434,109.5v38c0,1.7-1.3,3-3,3h0c-1.7,0-3-1.3-3-3v-38c0-1.7,1.3-3,3-3h0C432.7,106.5,434,107.8,434,109.5z"
			/>
		<path class="st0" d="M431,152c-2.5,0-4.5-2-4.5-4.5v-38c0-2.5,2-4.5,4.5-4.5s4.5,2,4.5,4.5v38C435.5,150,433.5,152,431,152z
			 M431,108c-0.8,0-1.5,0.7-1.5,1.5v38c0,0.8,0.7,1.5,1.5,1.5s1.5-0.7,1.5-1.5v-38C432.5,108.7,431.8,108,431,108z"/>
	</g>
	<g>
		<path class="st2" d="M486.5,96h-38c-1.7,0-3-1.3-3-3v0c0-1.7,1.3-3,3-3h38c1.7,0,3,1.3,3,3v0C489.5,94.7,488.2,96,486.5,96z"/>
		<path class="st0" d="M486.5,97.5h-38c-2.5,0-4.5-2-4.5-4.5s2-4.5,4.5-4.5h38c2.5,0,4.5,2,4.5,4.5S489,97.5,486.5,97.5z
			 M448.5,91.5c-0.8,0-1.5,0.7-1.5,1.5s0.7,1.5,1.5,1.5h38c0.8,0,1.5-0.7,1.5-1.5s-0.7-1.5-1.5-1.5H448.5z"/>
	</g>
	<g>
		<line class="st2" x1="111" y1="154" x2="186.5" y2="154"/>
		<path class="st1" d="M186.5,155.5H111c-0.8,0-1.5-0.7-1.5-1.5s0.7-1.5,1.5-1.5h75.5c0.8,0,1.5,0.7,1.5,1.5
			S187.3,155.5,186.5,155.5z"/>
	</g>
	<g>
		<line class="st2" x1="111" y1="174" x2="152.5" y2="174"/>
		<path class="st1" d="M152.5,175.5H111c-0.8,0-1.5-0.7-1.5-1.5s0.7-1.5,1.5-1.5h41.5c0.8,0,1.5,0.7,1.5,1.5
			S153.3,175.5,152.5,175.5z"/>
	</g>
	<g>
		<line class="st2" x1="111" y1="194" x2="166.5" y2="194"/>
		<path class="st1" d="M166.5,195.5H111c-0.8,0-1.5-0.7-1.5-1.5s0.7-1.5,1.5-1.5h55.5c0.8,0,1.5,0.7,1.5,1.5
			S167.3,195.5,166.5,195.5z"/>
	</g>
	<g>
		<line class="st2" x1="125" y1="214" x2="155.5" y2="214"/>
		<path class="st1" d="M155.5,215.5H125c-0.8,0-1.5-0.7-1.5-1.5s0.7-1.5,1.5-1.5h30.5c0.8,0,1.5,0.7,1.5,1.5
			S156.3,215.5,155.5,215.5z"/>
	</g>
	<g>
		<line class="st2" x1="125" y1="234" x2="150.5" y2="234"/>
		<path class="st1" d="M150.5,235.5H125c-0.8,0-1.5-0.7-1.5-1.5s0.7-1.5,1.5-1.5h25.5c0.8,0,1.5,0.7,1.5,1.5
			S151.3,235.5,150.5,235.5z"/>
	</g>
	<g>
		<circle class="st0" cx="113" cy="213.5" r="3"/>
	</g>
	<g>
		<circle class="st0" cx="113" cy="233.5" r="3"/>
	</g>
	<g>
		<path class="st0" d="M255.5,241.4c0-2.9,3.3-9.1,6.3-11c3-1.8,4.1-0.5,6,1.5c3.3,3.3,8.8,6.7,15,6.4c7.1-0.3,11.3-6.3,19.1-5.2
			c3.5,0.5,6.6,1.7,9.9-0.1c1.8-1,3.1-2.4,4.4-3.8c6.5-6.7,17.1-10.8,28.3-7.4v26.8h-89C255.5,248.5,255.5,241.4,255.5,241.4z"/>
	</g>
	<g>
		<path class="st1" d="M344,250h-88c-0.8,0-1.5-0.7-1.5-1.5v-48c0-0.8,0.7-1.5,1.5-1.5h88c0.8,0,1.5,0.7,1.5,1.5v48
			C345.5,249.3,344.8,250,344,250z M257.5,247h85v-45h-85V247z"/>
	</g>
	<g>
		<circle class="st0" cx="460" cy="105.5" r="2"/>
	</g>
	<g>
		<circle class="st0" cx="468" cy="105.5" r="2"/>
	</g>
	<g>
		<circle class="st0" cx="476" cy="105.5" r="2"/>
	</g>
	<g>
		<g>
			<circle class="st0" cx="460" cy="151.5" r="2"/>
		</g>
		<g>
			<circle class="st0" cx="468" cy="151.5" r="2"/>
		</g>
		<g>
			<circle class="st0" cx="476" cy="151.5" r="2"/>
		</g>
	</g>
	<g>
		<g>
			<circle class="st0" cx="429" cy="271.5" r="2"/>
		</g>
		<g>
			<circle class="st0" cx="437" cy="271.5" r="2"/>
		</g>
		<g>
			<circle class="st0" cx="445" cy="271.5" r="2"/>
		</g>
	</g>
	<g>
		<g>
			<circle class="st0" cx="405" cy="271.5" r="2"/>
		</g>
		<g>
			<circle class="st0" cx="413" cy="271.5" r="2"/>
		</g>
		<g>
			<circle class="st0" cx="421" cy="271.5" r="2"/>
		</g>
	</g>
	<g>
		<circle class="st0" cx="444" cy="135.5" r="2"/>
	</g>
	<g>
		<circle class="st0" cx="444" cy="127.5" r="2"/>
	</g>
	<g>
		<circle class="st0" cx="444" cy="119.5" r="2"/>
	</g>
	<g>
		<path class="st2" d="M290.5,190h31c2.2,0,4,1.8,4,4v18c0,2.2-1.8,4-4,4h-8l-6.1,6.1c-0.8,0.8-2,0.8-2.8,0l-6.1-6.1h-8
			c-2.2,0-4-1.8-4-4v-18C286.5,191.8,288.3,190,290.5,190z"/>
		<path class="st1" d="M306,224.2c-0.9,0-1.8-0.3-2.5-1l-5.6-5.6h-7.4c-3,0-5.5-2.5-5.5-5.5v-18c0-3,2.5-5.5,5.5-5.5h31
			c3,0,5.5,2.5,5.5,5.5v18c0,3-2.5,5.5-5.5,5.5h-7.4l-5.6,5.6C307.8,223.8,306.9,224.2,306,224.2z M290.5,191.5
			c-1.4,0-2.5,1.1-2.5,2.5v18c0,1.4,1.1,2.5,2.5,2.5h8.6l6.5,6.5c0.1,0.1,0.3,0.1,0.4,0.1s0.2,0,0.4-0.1l6.5-6.5h8.6
			c1.4,0,2.5-1.1,2.5-2.5v-18c0-1.4-1.1-2.5-2.5-2.5H290.5z"/>
	</g>
	<g>
		<circle class="st3" cx="306" cy="233.5" r="5"/>
		<path class="st1" d="M306,240.5c-3.9,0-7-3.1-7-7s3.1-7,7-7s7,3.1,7,7S309.9,240.5,306,240.5z M306,230.5c-1.7,0-3,1.3-3,3
			s1.3,3,3,3s3-1.3,3-3S307.7,230.5,306,230.5z"/>
	</g>
	<g>
		<path class="st0" d="M317,200h-22c-0.8,0-1.5-0.7-1.5-1.5s0.7-1.5,1.5-1.5h22c0.8,0,1.5,0.7,1.5,1.5S317.8,200,317,200z"/>
	</g>
	<g>
		<path class="st0" d="M314,209h-16c-0.8,0-1.5-0.7-1.5-1.5s0.7-1.5,1.5-1.5h16c0.8,0,1.5,0.7,1.5,1.5S314.8,209,314,209z"/>
	</g>
	<g>
		<g>
			<polyline class="st2" points="48,336 48,317 80,317 80,336 			"/>
			<polygon class="st0" points="81.5,336 78.5,336 78.5,318.5 49.5,318.5 49.5,336 46.5,336 46.5,315.5 81.5,315.5 			"/>
		</g>
		<g>
			<path class="st2" d="M83,318H45c-1.7,0-3-1.3-3-3l0,0c0-1.7,1.3-3,3-3h38c1.7,0,3,1.3,3,3l0,0C86,316.7,84.7,318,83,318z"/>
			<path class="st0" d="M83,319.5H45c-2.5,0-4.5-2-4.5-4.5s2-4.5,4.5-4.5h38c2.5,0,4.5,2,4.5,4.5S85.5,319.5,83,319.5z M45,313.5
				c-0.8,0-1.5,0.7-1.5,1.5s0.7,1.5,1.5,1.5h38c0.8,0,1.5-0.7,1.5-1.5s-0.7-1.5-1.5-1.5H45z"/>
		</g>
		<g>
			<g>
				<circle class="st0" cx="56" cy="325.5" r="2"/>
			</g>
			<g>
				<circle class="st0" cx="64" cy="325.5" r="2"/>
			</g>
			<g>
				<circle class="st0" cx="72" cy="325.5" r="2"/>
			</g>
		</g>
	</g>
	<g>
		<rect x="378" y="26.5" class="st2" width="12" height="24"/>
		<path class="st0" d="M390,52h-12c-0.8,0-1.5-0.7-1.5-1.5v-24c0-0.8,0.7-1.5,1.5-1.5h12c0.8,0,1.5,0.7,1.5,1.5v24
			C391.5,51.3,390.8,52,390,52z M379.5,49h9V28h-9V49z"/>
	</g>
	<g>
		<path class="st0" d="M384,45c-0.8,0-1.5-0.7-1.5-1.5v-10c0-0.8,0.7-1.5,1.5-1.5s1.5,0.7,1.5,1.5v10C385.5,44.3,384.8,45,384,45z"
			/>
	</g>
	<g>
		<path class="st2" d="M267,141c-0.8,0-1.5-0.7-1.5-1.5v-4c0-0.8,0.7-1.5,1.5-1.5s1.5,0.7,1.5,1.5v4C268.5,140.3,267.8,141,267,141z
			"/>
	</g>
	<g>
		<path class="st2" d="M267,118c-0.8,0-1.5-0.7-1.5-1.5v-4c0-0.8,0.7-1.5,1.5-1.5s1.5,0.7,1.5,1.5v4C268.5,117.3,267.8,118,267,118z
			"/>
	</g>
	<g>
		<path class="st1" d="M252.9,97.6L252.9,97.6c-1.6,1.6-4.2,1.6-5.8,0v0c-1.2-1.2-1.5-3-0.9-4.6l3.8-8.5l3.8,8.5
			C254.5,94.5,254.1,96.4,252.9,97.6z"/>
	</g>
	<g>
		<path class="st1" d="M280.9,89.6L280.9,89.6c-1.6,1.6-4.2,1.6-5.8,0v0c-1.2-1.2-1.5-3-0.9-4.6l3.8-8.5l3.8,8.5
			C282.5,86.5,282.1,88.4,280.9,89.6z"/>
	</g>
	<g>
		<path class="st0" d="M201,304c-0.8,0-1.5-0.7-1.5-1.5v-118c0-0.8,0.7-1.5,1.5-1.5s1.5,0.7,1.5,1.5v118
			C202.5,303.3,201.8,304,201,304z"/>
	</g>
	<g>
		<circle class="st0" cx="189" cy="198.5" r="5"/>
	</g>
	<g>
		<circle class="st0" cx="189" cy="270.5" r="5"/>
	</g>
	<g>
		<rect x="184" y="210.5" class="st1" width="10" height="10"/>
	</g>
	<g>
		<rect x="184" y="247.5" class="st0" width="10" height="10"/>
	</g>
	<g>
		<polyline class="st0" points="183,238 189,228 195,238 		"/>
	</g>
	<g>
		<polyline class="st0" points="183,293 189,283 195,293 		"/>
	</g>
	<g>
		<rect x="214" y="271.5" class="st2" width="12" height="17"/>
		<path class="st1" d="M226,290h-12c-0.8,0-1.5-0.7-1.5-1.5v-17c0-0.8,0.7-1.5,1.5-1.5h12c0.8,0,1.5,0.7,1.5,1.5v17
			C227.5,289.3,226.8,290,226,290z M215.5,287h9v-14h-9V287z"/>
	</g>
	<g>
		<rect x="261.2" y="274.9" class="st2" width="12" height="13.6"/>
		<path class="st1" d="M273.2,290h-12c-0.8,0-1.5-0.7-1.5-1.5v-13.6c0-0.8,0.7-1.5,1.5-1.5h12c0.8,0,1.5,0.7,1.5,1.5v13.6
			C274.7,289.3,274,290,273.2,290z M262.7,287h9v-10.6h-9V287z"/>
	</g>
	<g>
		<rect x="308.4" y="269.3" class="st2" width="12" height="19.2"/>
		<path class="st1" d="M320.4,290h-12c-0.8,0-1.5-0.7-1.5-1.5v-19.2c0-0.8,0.7-1.5,1.5-1.5h12c0.8,0,1.5,0.7,1.5,1.5v19.2
			C321.9,289.3,321.2,290,320.4,290z M309.9,287h9v-16.2h-9V287z"/>
	</g>
	<g>
		<rect x="237" y="262" class="st3" width="12" height="27"/>
		<path class="st1" d="M249,290.5h-12c-0.8,0-1.5-0.7-1.5-1.5v-27c0-0.8,0.7-1.5,1.5-1.5h12c0.8,0,1.5,0.7,1.5,1.5v27
			C250.5,289.8,249.8,290.5,249,290.5z M238.5,287.5h9v-24h-9V287.5z"/>
	</g>
	<g>
		<rect x="284.8" y="268" class="st0" width="12" height="20.5"/>
		<path class="st1" d="M296.8,290h-12c-0.8,0-1.5-0.7-1.5-1.5V268c0-0.8,0.7-1.5,1.5-1.5h12c0.8,0,1.5,0.7,1.5,1.5v20.5
			C298.3,289.3,297.6,290,296.8,290z M286.3,287h9v-17.5h-9V287z"/>
	</g>
	<g>
		<rect x="332" y="262.5" class="st0" width="12" height="26"/>
		<path class="st1" d="M344,290h-12c-0.8,0-1.5-0.7-1.5-1.5v-26c0-0.8,0.7-1.5,1.5-1.5h12c0.8,0,1.5,0.7,1.5,1.5v26
			C345.5,289.3,344.8,290,344,290z M333.5,287h9v-23h-9V287z"/>
	</g>
	<g>
		<path class="st1" d="M97,338H42.5c-0.8,0-1.5-0.7-1.5-1.5s0.7-1.5,1.5-1.5H97c0.8,0,1.5,0.7,1.5,1.5S97.8,338,97,338z"/>
	</g>
	<g>
		<path class="st1" d="M176,338h-65.5c-0.8,0-1.5-0.7-1.5-1.5s0.7-1.5,1.5-1.5H176c0.8,0,1.5,0.7,1.5,1.5S176.8,338,176,338z"/>
	</g>
	<g>
		<path class="st1" d="M421.2,338h-70.8c-0.8,0-1.5-0.7-1.5-1.5s0.7-1.5,1.5-1.5h70.8c0.8,0,1.5,0.7,1.5,1.5S422.1,338,421.2,338z"
			/>
	</g>
	<g>
		<path class="st1" d="M484,338h-49.5c-0.8,0-1.5-0.7-1.5-1.5s0.7-1.5,1.5-1.5H484c0.8,0,1.5,0.7,1.5,1.5S484.8,338,484,338z"/>
	</g>
	<g>
		<path class="st1" d="M243.5,210.5h-29c-0.8,0-1.5-0.7-1.5-1.5s0.7-1.5,1.5-1.5h29c0.8,0,1.5,0.7,1.5,1.5S244.3,210.5,243.5,210.5z
			"/>
	</g>
	<g>
		<path class="st1" d="M230.5,220.5h-16c-0.8,0-1.5-0.7-1.5-1.5s0.7-1.5,1.5-1.5h16c0.8,0,1.5,0.7,1.5,1.5S231.3,220.5,230.5,220.5z
			"/>
	</g>
	<g>
		<path class="st1" d="M234.5,240.5h-20c-0.8,0-1.5-0.7-1.5-1.5s0.7-1.5,1.5-1.5h20c0.8,0,1.5,0.7,1.5,1.5S235.3,240.5,234.5,240.5z
			"/>
	</g>
	<g>
		<path class="st1" d="M238.5,230.5h-24c-0.8,0-1.5-0.7-1.5-1.5s0.7-1.5,1.5-1.5h24c0.8,0,1.5,0.7,1.5,1.5S239.3,230.5,238.5,230.5z
			"/>
	</g>
	<g>
		<path class="st1" d="M130.5,263.5c-0.2,0-0.4,0-0.7-0.2c-0.7-0.4-1.1-1.3-0.7-2c1.8-3.7,7.2-14.8,15.4-12.4
			c2.1,0.6,3.4,2.2,3.5,4.2c0.1,2.4-1.4,5.2-3.6,7.4h21.1c0.8,0,1.5,0.7,1.5,1.5s-0.7,1.5-1.5,1.5h-26c-0.7,0-1.3-0.5-1.5-1.2
			c-0.1-0.7,0.2-1.4,0.9-1.7c3.6-1.5,6.3-5.1,6.1-7.3c0-0.6-0.2-1.2-1.3-1.5c-3.9-1.1-7.8,2.4-11.9,10.9
			C131.6,263.2,131.1,263.5,130.5,263.5z"/>
	</g>
	<g>
		<path class="st0" d="M219,136c-0.8,0-1.5-0.7-1.5-1.5c0-4.7-3.8-8.5-8.5-8.5s-8.5,3.8-8.5,8.5c0,0.8-0.7,1.5-1.5,1.5
			s-1.5-0.7-1.5-1.5c0-6.3,5.2-11.5,11.5-11.5s11.5,5.2,11.5,11.5C220.5,135.3,219.8,136,219,136z"/>
	</g>
	<g>
		<path class="st1" d="M30.5,338h-29c-0.8,0-1.5-0.7-1.5-1.5s0.7-1.5,1.5-1.5h29c0.8,0,1.5,0.7,1.5,1.5S31.3,338,30.5,338z"/>
	</g>
	<g>
		<path class="st1" d="M510.5,338h-17c-0.8,0-1.5-0.7-1.5-1.5s0.7-1.5,1.5-1.5h17c0.8,0,1.5,0.7,1.5,1.5S511.3,338,510.5,338z"/>
	</g>
	<g>
		<g>
			<path class="st0" d="M343,50c-4.1,0-7.9-2.2-9.9-5.7c-0.4-0.7-0.2-1.6,0.5-2c0.7-0.4,1.6-0.2,2,0.5c1.5,2.6,4.3,4.3,7.4,4.3
				c3,0,5.8-1.6,7.4-4.3c0.4-0.7,1.3-1,2-0.5c0.7,0.4,1,1.3,0.5,2C350.9,47.8,347.1,50,343,50z"/>
		</g>
		<g>
			<path class="st0" d="M334.3,35c-0.3,0-0.5-0.1-0.8-0.2c-0.7-0.4-1-1.3-0.5-2c2.1-3.5,5.9-5.7,9.9-5.7c4.1,0,7.9,2.2,9.9,5.7
				c0.4,0.7,0.2,1.6-0.5,2c-0.7,0.4-1.6,0.2-2-0.5c-1.5-2.6-4.3-4.3-7.4-4.3c-3,0-5.8,1.6-7.4,4.3C335.4,34.7,334.9,35,334.3,35z"/>
		</g>
	</g>
	<g>
		<rect x="406" y="286.5" class="st0" width="8" height="8"/>
	</g>
	<g>
		<rect x="417" y="286.5" class="st0" width="8" height="8"/>
	</g>
	<g>
		<rect x="428" y="286.5" class="st0" width="8" height="8"/>
	</g>
	<g>
		<rect x="439" y="286.5" class="st1" width="8" height="8"/>
	</g>
	<g>
		<rect x="406" y="297.5" class="st0" width="8" height="8"/>
	</g>
	<g>
		<rect x="417" y="297.5" class="st1" width="8" height="8"/>
	</g>
	<g>
		<rect x="428" y="297.5" class="st0" width="8" height="8"/>
	</g>
	<g>
		<rect x="439" y="297.5" class="st1" width="8" height="8"/>
	</g>
	<g>
		<rect x="406" y="308.5" class="st1" width="8" height="8"/>
	</g>
	<g>
		<rect x="417" y="308.5" class="st1" width="8" height="8"/>
	</g>
	<g>
		<rect x="428" y="308.5" class="st1" width="8" height="8"/>
	</g>
	<g>
		<rect x="439" y="308.5" class="st1" width="8" height="8"/>
	</g>
	<g>
		<rect x="406" y="319.5" class="st1" width="8" height="8"/>
	</g>
	<g>
		<rect x="417" y="319.5" class="st1" width="8" height="8"/>
	</g>
	<g>
		<rect x="428" y="319.5" class="st1" width="8" height="8"/>
	</g>
	<g>
		<rect x="439" y="319.5" class="st1" width="8" height="8"/>
	</g>
	<g>
		<path class="st1" d="M454.5,279.5h-88c-0.8,0-1.5-0.7-1.5-1.5s0.7-1.5,1.5-1.5h88c0.8,0,1.5,0.7,1.5,1.5S455.3,279.5,454.5,279.5z
			"/>
	</g>
	<g>
		<g>
			<circle class="st0" cx="381" cy="271.5" r="2"/>
		</g>
		<g>
			<circle class="st0" cx="389" cy="271.5" r="2"/>
		</g>
		<g>
			<circle class="st0" cx="397" cy="271.5" r="2"/>
		</g>
	</g>
	<g>
		<g>
			<circle class="st0" cx="373" cy="271.5" r="2"/>
		</g>
	</g>
	<g>
		<path class="st0" d="M397,290h-22c-0.8,0-1.5-0.7-1.5-1.5s0.7-1.5,1.5-1.5h22c0.8,0,1.5,0.7,1.5,1.5S397.8,290,397,290z"/>
	</g>
	<g>
		<path class="st0" d="M397,297h-22c-0.8,0-1.5-0.7-1.5-1.5s0.7-1.5,1.5-1.5h22c0.8,0,1.5,0.7,1.5,1.5S397.8,297,397,297z"/>
	</g>
	<g>
		<path class="st0" d="M397,304h-22c-0.8,0-1.5-0.7-1.5-1.5s0.7-1.5,1.5-1.5h22c0.8,0,1.5,0.7,1.5,1.5S397.8,304,397,304z"/>
	</g>
	<g>
		<path class="st0" d="M333.8,136.3l2.4-6c0.6-1.6,2.8-1.6,3.5,0l2.4,6c0.2,0.5,0.6,0.9,1,1l6,2.4c1.6,0.6,1.6,2.8,0,3.5l-6,2.4
			c-0.5,0.2-0.9,0.6-1,1l-2.4,6c-0.6,1.6-2.8,1.6-3.5,0l-2.4-6c-0.2-0.5-0.6-0.9-1-1l-6-2.4c-1.6-0.6-1.6-2.8,0-3.5l6-2.4
			C333.2,137.1,333.6,136.8,333.8,136.3z"/>
	</g>
	<g>
		<path class="st0" d="M315,155l1.1-2.8c0.3-0.7,1.3-0.7,1.6,0l1.1,2.8c0.1,0.2,0.3,0.4,0.5,0.5l2.8,1.1c0.7,0.3,0.7,1.3,0,1.6
			l-2.8,1.1c-0.2,0.1-0.4,0.3-0.5,0.5l-1.1,2.8c-0.3,0.7-1.3,0.7-1.6,0l-1.1-2.8c-0.1-0.2-0.3-0.4-0.5-0.5l-2.8-1.1
			c-0.7-0.3-0.7-1.3,0-1.6l2.8-1.1C314.7,155.4,314.9,155.3,315,155z"/>
	</g>
	<g>
		<path class="st0" d="M311.3,127.3l1.5-3.7c0.4-1,1.8-1,2.1,0l1.5,3.7c0.1,0.3,0.4,0.5,0.6,0.6l3.7,1.5c1,0.4,1,1.8,0,2.1l-3.7,1.5
			c-0.3,0.1-0.5,0.4-0.6,0.6l-1.5,3.7c-0.4,1-1.8,1-2.1,0l-1.5-3.7c-0.1-0.3-0.4-0.5-0.6-0.6l-3.7-1.5c-1-0.4-1-1.8,0-2.1l3.7-1.5
			C311,127.8,311.2,127.6,311.3,127.3z"/>
	</g>
</g>
</svg>
