<?xml version="1.0" encoding="utf-8"?>
<!-- Generator: Adobe Illustrator 22.0.1, SVG Export Plug-In . SVG Version: 6.00 Build 0)  -->
<svg version="1.1" id="Layer_1" xmlns="http://www.w3.org/2000/svg" xmlns:xlink="http://www.w3.org/1999/xlink" x="0px" y="0px"
	 viewBox="0 0 512 338" style="enable-background:new 0 0 512 338;" xml:space="preserve">
<style type="text/css">
	.st0{fill:#D0E2F6;}
	.st1{fill:#48D0AC;}
	.st2{fill:#0087E2;}
	.st3{fill:#FFFFFF;}
	.st4{fill:none;}
</style>
<g>
	<g>
		<path class="st0" d="M334.8,180.8h-8c-0.8,0-1.5-0.7-1.5-1.5v-21c0-0.8,0.7-1.5,1.5-1.5s1.5,0.7,1.5,1.5v19.5h5v-19.5
			c0-0.8,0.7-1.5,1.5-1.5s1.5,0.7,1.5,1.5v21C336.2,180.1,335.6,180.8,334.8,180.8z"/>
	</g>
	<g>
		<path class="st0" d="M350.2,185.3h-10c-0.8,0-1.5-0.7-1.5-1.5s0.7-1.5,1.5-1.5h10c0.8,0,1.5,0.7,1.5,1.5S351.1,185.3,350.2,185.3z
			"/>
	</g>
	<g>
		<path class="st0" d="M324.2,204h-13.5c-0.8,0-1.5-0.7-1.5-1.5s0.7-1.5,1.5-1.5h13.5c2.5,0,4.5-2,4.5-4.5v-13.7
			c0-0.8,0.7-1.5,1.5-1.5s1.5,0.7,1.5,1.5v13.7C331.8,200.6,328.4,204,324.2,204z"/>
	</g>
	<g>
		<path class="st0" d="M270.8,194.8h-40c-0.8,0-1.5-0.7-1.5-1.5v-16c0-0.8,0.7-1.5,1.5-1.5h40c0.8,0,1.5,0.7,1.5,1.5v16
			C272.2,194.1,271.6,194.8,270.8,194.8z M232.2,191.8h37v-13h-37V191.8z"/>
	</g>
	<g>
		<path class="st1" d="M230.8,239.3v42.6c0.1,0,0.2,0,0.2,0c4.7,0,7.9,2.3,9.7,5.4h16.1v-48H230.8z"/>
	</g>
	<g>
		<path class="st2" d="M256.8,288.8h-13c-0.8,0-1.5-0.7-1.5-1.5s0.7-1.5,1.5-1.5h11.5v-45h-23v40c0,0.8-0.7,1.5-1.5,1.5
			s-1.5-0.7-1.5-1.5v-41.5c0-0.8,0.7-1.5,1.5-1.5h26c0.8,0,1.5,0.7,1.5,1.5v48C258.2,288.1,257.6,288.8,256.8,288.8z"/>
	</g>
	<g>
		<path class="st0" d="M127.8,139.8c-28.4,0-51.5-23.1-51.5-51.5V36.8h103v51.5C179.2,116.7,156.1,139.8,127.8,139.8z M79.2,39.8
			v48.5c0,26.7,21.8,48.5,48.5,48.5s48.5-21.8,48.5-48.5V39.8H79.2z"/>
	</g>
	<g>
		<polygon class="st3" points="122.2,110.8 122.2,153.7 195.2,120 		"/>
	</g>
	<g>
		<path class="st0" d="M432.5,268.2c-16.1,0-29.3-13.1-29.3-29.3c0-8.6,3.7-16.5,10.1-22.1c-3-4-4.6-9-4.6-14c0-7,3-13.5,8.4-18.1
			c-1.9-2.9-2.8-6.2-2.8-9.7c0-10,8.2-18.2,18.2-18.2c10,0,18.2,8.2,18.2,18.2c0,3.5-1,6.8-2.8,9.7c5.3,4.5,8.4,11,8.4,18.1
			c0,5-1.6,10-4.6,14c6.5,5.6,10.1,13.6,10.1,22.1C461.8,255,448.7,268.2,432.5,268.2z M432.5,159.8c-8.4,0-15.2,6.8-15.2,15.2
			c0,3.3,1.1,6.5,3.1,9.1l0.9,1.2l-1.2,0.9c-5.3,4-8.3,10-8.3,16.6c0,4.8,1.7,9.6,4.8,13.3l1,1.2l-1.2,1c-6.4,5-10.1,12.6-10.1,20.7
			c0,14.5,11.8,26.3,26.3,26.3c14.5,0,26.3-11.8,26.3-26.3c0-8.1-3.7-15.7-10.1-20.7l-1.2-1l1-1.2c3.1-3.7,4.8-8.4,4.8-13.3
			c0-6.6-3-12.6-8.3-16.6l-1.2-0.9l0.9-1.2c2-2.7,3.1-5.8,3.1-9.1C447.7,166.6,440.9,159.8,432.5,159.8z"/>
	</g>
	<g>
		<path class="st0" d="M431.8,288.3c-0.8,0-1.5-0.7-1.5-1.5v-100c0-0.8,0.7-1.5,1.5-1.5s1.5,0.7,1.5,1.5v100
			C433.3,287.6,432.7,288.3,431.8,288.3z"/>
	</g>
	<g>
		<path class="st0" d="M431.8,210.5c-0.3,0-0.5-0.1-0.8-0.2l-11.1-6.9c-0.7-0.4-0.9-1.4-0.5-2.1c0.4-0.7,1.4-0.9,2.1-0.5l11.1,6.9
			c0.7,0.4,0.9,1.4,0.5,2.1C432.8,210.3,432.3,210.5,431.8,210.5z"/>
	</g>
	<g>
		<path class="st0" d="M431.8,249.4c-0.4,0-0.7-0.1-1-0.4c-0.6-0.6-0.7-1.5-0.1-2.1l12.5-13.9c0.6-0.6,1.5-0.7,2.1-0.1
			c0.6,0.6,0.7,1.5,0.1,2.1L433,248.9C432.7,249.3,432.2,249.4,431.8,249.4z"/>
	</g>
	<g>
		<rect x="81.8" y="201.8" class="st0" width="41" height="3"/>
	</g>
	<g>
		<rect x="84.8" y="191.8" class="st0" width="38" height="3"/>
	</g>
	<g>
		<path class="st3" d="M285.7,274.1c-4.3-3.5-7-8.8-7-14.7c0-10.5,8.5-19,19-19s19,8.5,19,19c0,5.9-2.7,11.2-7,14.7"/>
		<path class="st2" d="M284.8,275.2c-4.8-3.9-7.6-9.7-7.6-15.9c0-11.3,9.2-20.5,20.5-20.5s20.5,9.2,20.5,20.5c0,6.2-2.8,12-7.6,15.9
			l-1.9-2.3c4.1-3.3,6.4-8.3,6.4-13.6c0-9.6-7.9-17.5-17.5-17.5s-17.5,7.9-17.5,17.5c0,5.3,2.3,10.2,6.4,13.6L284.8,275.2z"/>
	</g>
	<g>
		<polyline class="st0" points="240.7,287.3 227.8,287.3 227.8,295.3 241.8,295.3 		"/>
		<path class="st2" d="M241.8,296.8h-14c-0.8,0-1.5-0.7-1.5-1.5v-8c0-0.8,0.7-1.5,1.5-1.5h12.9c0.8,0,1.5,0.7,1.5,1.5
			s-0.7,1.5-1.5,1.5h-11.4v5h12.5c0.8,0,1.5,0.7,1.5,1.5S242.6,296.8,241.8,296.8z"/>
	</g>
	<g>
		<polyline class="st0" points="380.8,144.3 380.8,100.8 364.8,100.8 364.8,140.3 		"/>
		<path class="st2" d="M380.8,145.8c-0.8,0-1.5-0.7-1.5-1.5v-42h-13v38c0,0.8-0.7,1.5-1.5,1.5s-1.5-0.7-1.5-1.5v-39.5
			c0-0.8,0.7-1.5,1.5-1.5h16c0.8,0,1.5,0.7,1.5,1.5v43.5C382.2,145.1,381.6,145.8,380.8,145.8z"/>
	</g>
	<g>
		<rect x="56.8" y="76.3" class="st3" width="140" height="18"/>
		<path class="st0" d="M198.2,95.8h-143v-21h143V95.8z M58.2,92.8h137v-15h-137V92.8z"/>
	</g>
	<g>
		<path class="st0" d="M189.2,39.8h-123V27.3l61.5-27.2l61.5,27.2V39.8z M69.2,36.8h117v-7.5L127.8,3.5L69.2,29.3V36.8z"/>
	</g>
	<g>
		
			<rect x="-15.8" y="218.3" transform="matrix(0.3262 -0.9453 0.9453 0.3262 -156.4186 220.2009)" class="st0" width="184.1" height="3"/>
	</g>
	<g>
		<rect x="75.8" y="76.8" class="st0" width="3" height="18"/>
	</g>
	<g>
		<rect x="65.8" y="76.8" class="st0" width="3" height="18"/>
	</g>
	<g>
		<rect x="85.8" y="76.8" class="st0" width="3" height="18"/>
	</g>
	<g>
		<rect x="95.8" y="76.8" class="st0" width="3" height="18"/>
	</g>
	<g>
		<rect x="105.8" y="76.8" class="st0" width="3" height="18"/>
	</g>
	<g>
		<rect x="115.8" y="76.8" class="st0" width="3" height="18"/>
	</g>
	<g>
		<rect x="125.8" y="76.8" class="st0" width="3" height="18"/>
	</g>
	<g>
		<rect x="135.8" y="76.8" class="st0" width="3" height="18"/>
	</g>
	<g>
		<rect x="145.8" y="76.8" class="st0" width="3" height="18"/>
	</g>
	<g>
		<rect x="155.8" y="76.8" class="st0" width="3" height="18"/>
	</g>
	<g>
		<rect x="165.8" y="76.8" class="st0" width="3" height="18"/>
	</g>
	<g>
		<rect x="175.8" y="76.8" class="st0" width="3" height="18"/>
	</g>
	<g>
		<rect x="185.8" y="76.8" class="st0" width="3" height="18"/>
	</g>
	<g>
		<path class="st2" d="M380.8,288.8h-69.2c-0.8,0-1.5-0.7-1.5-1.5s0.7-1.5,1.5-1.5h67.8V143.7l-255-30.7v174.3
			c0,0.8-0.7,1.5-1.5,1.5s-1.5-0.7-1.5-1.5v-176c0-0.4,0.2-0.8,0.5-1.1c0.3-0.3,0.7-0.4,1.2-0.4l258,31.1c0.8,0.1,1.3,0.7,1.3,1.5
			v144.9C382.2,288.1,381.6,288.8,380.8,288.8z"/>
	</g>
	<g>
		<line class="st3" x1="241.2" y1="287.3" x2="284.5" y2="287.3"/>
		<path class="st2" d="M284.5,288.8h-43.2c-0.8,0-1.5-0.7-1.5-1.5s0.7-1.5,1.5-1.5h43.2c0.8,0,1.5,0.7,1.5,1.5
			S285.3,288.8,284.5,288.8z"/>
	</g>
	<g>
		<g>
			<path class="st2" d="M451.8,337.8h-114c-29.5,0-53.5-24-53.5-53.5v-24c0-0.8,0.7-1.5,1.5-1.5s1.5,0.7,1.5,1.5v24
				c0,27.8,22.7,50.5,50.5,50.5h114c0.8,0,1.5,0.7,1.5,1.5S452.6,337.8,451.8,337.8z"/>
		</g>
		<g>
			<path class="st2" d="M441.8,313.8h-104c-16.3,0-29.5-13.2-29.5-29.5v-24c0-0.8,0.7-1.5,1.5-1.5s1.5,0.7,1.5,1.5v24
				c0,14.6,11.9,26.5,26.5,26.5h104c0.8,0,1.5,0.7,1.5,1.5S442.6,313.8,441.8,313.8z"/>
		</g>
	</g>
	<g>
		<path class="st2" d="M46.1,337.8H7.8c-0.8,0-1.5-0.7-1.5-1.5s0.7-1.5,1.5-1.5h38.3c0.8,0,1.5,0.7,1.5,1.5S46.9,337.8,46.1,337.8z"
			/>
	</g>
	<g>
		<path class="st2" d="M96.2,337.8h-19c-0.8,0-1.5-0.7-1.5-1.5s0.7-1.5,1.5-1.5h19c0.8,0,1.5,0.7,1.5,1.5S97.1,337.8,96.2,337.8z"/>
	</g>
	<g>
		<path class="st2" d="M195.8,337.8h-69c-0.8,0-1.5-0.7-1.5-1.5s0.7-1.5,1.5-1.5h69c0.8,0,1.5,0.7,1.5,1.5S196.6,337.8,195.8,337.8z
			"/>
	</g>
	<g>
		<path class="st2" d="M466.8,337.8H227.4c-0.8,0-1.5-0.7-1.5-1.5s0.7-1.5,1.5-1.5h239.3c0.8,0,1.5,0.7,1.5,1.5
			S467.6,337.8,466.8,337.8z"/>
	</g>
	<g>
		<path class="st2" d="M507.8,337.8h-20.5c-0.8,0-1.5-0.7-1.5-1.5s0.7-1.5,1.5-1.5h20.5c0.8,0,1.5,0.7,1.5,1.5
			S508.6,337.8,507.8,337.8z"/>
	</g>
	<g>
		<path class="st3" d="M361.8,304.3L361.8,304.3c-3.3,0-6,2.7-6,6v26h12v-26C367.8,307,365.1,304.3,361.8,304.3z"/>
		<path class="st2" d="M369.2,337.8h-15v-27.5c0-4.1,3.4-7.5,7.5-7.5s7.5,3.4,7.5,7.5V337.8z M357.2,334.8h9v-24.5
			c0-2.5-2-4.5-4.5-4.5s-4.5,2-4.5,4.5V334.8z"/>
	</g>
	<g>
		<g>
			<circle class="st0" cx="361.8" cy="328.3" r="2"/>
		</g>
		<g>
			<circle class="st0" cx="361.8" cy="320.3" r="2"/>
		</g>
		<g>
			<circle class="st0" cx="361.8" cy="312.3" r="2"/>
		</g>
	</g>
	<g>
		<rect x="32.8" y="298.3" class="st3" width="156" height="16"/>
		<path class="st2" d="M188.8,315.8h-156c-0.8,0-1.5-0.7-1.5-1.5v-16c0-0.8,0.7-1.5,1.5-1.5h156c0.8,0,1.5,0.7,1.5,1.5v16
			C190.2,315.1,189.6,315.8,188.8,315.8z M34.2,312.8h153v-13h-153V312.8z"/>
	</g>
	<g>
		<path class="st3" d="M165.8,289.3h-122c-6.6,0-12-5.4-12-12v-16c0-6.6,5.4-12,12-12h122c6.6,0,12,5.4,12,12v16
			C177.8,283.9,172.4,289.3,165.8,289.3z"/>
		<path class="st2" d="M165.8,290.8h-122c-7.4,0-13.5-6.1-13.5-13.5v-16c0-7.4,6.1-13.5,13.5-13.5h122c7.4,0,13.5,6.1,13.5,13.5v16
			C179.2,284.8,173.2,290.8,165.8,290.8z M43.8,250.8c-5.8,0-10.5,4.7-10.5,10.5v16c0,5.8,4.7,10.5,10.5,10.5h122
			c5.8,0,10.5-4.7,10.5-10.5v-16c0-5.8-4.7-10.5-10.5-10.5H43.8z"/>
	</g>
	<g>
		<path class="st1" d="M404,236.6c2.3-2.8,3.7-6.3,3.7-10.2c0-5.2-2.5-9.9-6.4-12.8c1.5-2,2.4-4.5,2.4-7.2c0-6.6-5.4-12-12-12
			s-12,5.4-12,12c0,2.7,0.9,5.2,2.4,7.2c-3.9,2.9-6.4,7.6-6.4,12.8c0,3.9,1.4,7.5,3.7,10.2c-4.7,3.7-7.7,9.3-7.7,15.8
			c0,11,9,20,20,20s20-9,20-20C411.8,245.9,408.7,240.2,404,236.6z"/>
		<path class="st2" d="M391.8,273.8c-11.9,0-21.5-9.6-21.5-21.5c0-6.2,2.6-11.9,7.2-16c-2-2.9-3.2-6.4-3.2-10
			c0-5.1,2.1-9.8,5.9-13.1c-1.3-2.1-1.9-4.5-1.9-6.9c0-7.4,6.1-13.5,13.5-13.5s13.5,6.1,13.5,13.5c0,2.5-0.7,4.8-1.9,6.9
			c3.8,3.3,5.9,8,5.9,13.1c0,3.6-1.1,7.1-3.2,10c4.6,4.1,7.2,9.8,7.2,16C413.2,264.2,403.6,273.8,391.8,273.8z M391.8,195.8
			c-5.8,0-10.5,4.7-10.5,10.5c0,2.3,0.7,4.5,2.1,6.3l0.9,1.2l-1.2,0.9c-3.7,2.8-5.8,7-5.8,11.6c0,3.4,1.2,6.7,3.4,9.3l1,1.2l-1.2,1
			c-4.5,3.5-7.1,8.9-7.1,14.6c0,10.2,8.3,18.5,18.5,18.5s18.5-8.3,18.5-18.5c0-5.7-2.6-11-7.1-14.6l-1.2-1l1-1.2
			c2.2-2.6,3.4-5.9,3.4-9.3c0-4.6-2.1-8.8-5.8-11.6l-1.2-0.9l0.9-1.2c1.4-1.8,2.1-4,2.1-6.3C402.2,200.5,397.5,195.8,391.8,195.8z"
			/>
	</g>
	<g>
		<path class="st2" d="M391.2,288.3c-0.8,0-1.5-0.7-1.5-1.5v-72c0-0.8,0.7-1.5,1.5-1.5s1.5,0.7,1.5,1.5v72
			C392.8,287.6,392.1,288.3,391.2,288.3z"/>
	</g>
	<g>
		<path class="st2" d="M391.2,232.3c-0.3,0-0.5-0.1-0.8-0.2l-8-5c-0.7-0.4-0.9-1.4-0.5-2.1c0.4-0.7,1.4-0.9,2.1-0.5l8,5
			c0.7,0.4,0.9,1.4,0.5,2.1C392.2,232.1,391.7,232.3,391.2,232.3z"/>
	</g>
	<g>
		<path class="st2" d="M391.2,260.3c-0.4,0-0.7-0.1-1-0.4c-0.6-0.6-0.7-1.5-0.1-2.1l9-10c0.6-0.6,1.5-0.7,2.1-0.1
			c0.6,0.6,0.7,1.5,0.1,2.1l-9,10C392.1,260.2,391.7,260.3,391.2,260.3z"/>
	</g>
	<g>
		<path class="st0" d="M476.8,289.3c-0.8,0-1.5-0.7-1.5-1.5v-19c0-0.8,0.7-1.5,1.5-1.5s1.5,0.7,1.5,1.5v19
			C478.2,288.6,477.6,289.3,476.8,289.3z"/>
	</g>
	<g>
		<path class="st0" d="M476.8,269.8c-5.8,0-10.5-4.7-10.5-10.5s4.7-10.5,10.5-10.5s10.5,4.7,10.5,10.5S482.5,269.8,476.8,269.8z
			 M476.8,251.8c-4.1,0-7.5,3.4-7.5,7.5s3.4,7.5,7.5,7.5s7.5-3.4,7.5-7.5S480.9,251.8,476.8,251.8z"/>
	</g>
	<g>
		<path class="st0" d="M411.2,289.3c-3.6,0-6.5-2.9-6.5-6.5s2.9-6.5,6.5-6.5s6.5,2.9,6.5,6.5S414.8,289.3,411.2,289.3z M411.2,279.3
			c-1.9,0-3.5,1.6-3.5,3.5s1.6,3.5,3.5,3.5s3.5-1.6,3.5-3.5S413.2,279.3,411.2,279.3z"/>
	</g>
	<g>
		<path class="st2" d="M413.2,60.8c-6,0-11.3,2.8-14.8,7.1c-1.6-0.7-3.4-1.1-5.2-1.1c-5.1,0-9.5,3-11.7,7.3
			c-1.3-0.8-2.7-1.3-4.3-1.3c-4.4,0-8,3.6-8,8s3.6,8,8,8c2,0,3.7-0.7,5.1-1.9c2.3,3.5,6.3,5.9,10.9,5.9c1.9,0,3.6-0.4,5.2-1.1
			c3.5,4.3,8.8,7.1,14.8,7.1c10.5,0,19-8.5,19-19S423.7,60.8,413.2,60.8z"/>
	</g>
	<g>
		<path class="st0" d="M163.4,235.3c3,0,5.7-1.5,7.5-3.7c0.8,0.4,1.7,0.6,2.6,0.6c2.6,0,4.8-1.6,5.9-3.8c0.6,0.4,1.4,0.7,2.2,0.7
			c2.2,0,4.1-1.9,4.1-4.2c0-2.3-1.8-4.2-4.1-4.2c-1,0-1.9,0.4-2.6,1c-1.2-1.9-3.2-3.1-5.5-3.1c-0.9,0-1.8,0.2-2.6,0.6
			c-1.8-2.3-4.5-3.7-7.5-3.7c-5.3,0-9.7,4.5-9.7,10S158.1,235.3,163.4,235.3z"/>
	</g>
	<g>
		<rect x="182.8" y="236.3" class="st0" width="6" height="62"/>
		<path class="st2" d="M188.8,299.8h-6c-0.8,0-1.5-0.7-1.5-1.5v-62c0-0.8,0.7-1.5,1.5-1.5h6c0.8,0,1.5,0.7,1.5,1.5v62
			C190.2,299.1,189.6,299.8,188.8,299.8z M184.2,296.8h3v-59h-3V296.8z"/>
	</g>
	<g>
		<path class="st2" d="M242.8,315.8h-54c-0.8,0-1.5-0.7-1.5-1.5v-32c0-0.8,0.7-1.5,1.5-1.5h42c7.4,0,13.5,6.1,13.5,13.5v20
			C244.2,315.1,243.6,315.8,242.8,315.8z M190.2,312.8h51v-18.5c0-5.8-4.7-10.5-10.5-10.5h-40.5V312.8z"/>
	</g>
	<g>
		<polygon class="st3" points="220.8,282.3 188.8,282.3 188.8,254.3 210.8,254.3 		"/>
		<path class="st2" d="M220.8,283.8h-32c-0.8,0-1.5-0.7-1.5-1.5v-28c0-0.8,0.7-1.5,1.5-1.5h22c0.6,0,1.2,0.4,1.4,1l10,28
			c0.2,0.5,0.1,1-0.2,1.4C221.7,283.6,221.2,283.8,220.8,283.8z M190.2,280.8h28.4l-8.9-25h-19.4V280.8z"/>
	</g>
	<g>
		<path class="st0" d="M200.2,290.3h-5c-0.8,0-1.5-0.7-1.5-1.5s0.7-1.5,1.5-1.5h5c0.8,0,1.5,0.7,1.5,1.5S201.1,290.3,200.2,290.3z"
			/>
	</g>
	<g>
		<rect x="66.8" y="288.8" class="st2" width="3" height="9"/>
	</g>
	<g>
		<rect x="58.8" y="288.8" class="st2" width="3" height="9"/>
	</g>
	<g>
		<rect x="150.8" y="288.8" class="st2" width="3" height="9"/>
	</g>
	<g>
		<rect x="142.8" y="288.8" class="st2" width="3" height="9"/>
	</g>
	<g>
		<g>
			<circle class="st3" cx="111.8" cy="321.3" r="12"/>
			<path class="st2" d="M111.8,337.3c-8.8,0-16-7.2-16-16s7.2-16,16-16s16,7.2,16,16S120.6,337.3,111.8,337.3z M111.8,313.3
				c-4.4,0-8,3.6-8,8s3.6,8,8,8s8-3.6,8-8S116.2,313.3,111.8,313.3z"/>
		</g>
		<g>
			<circle class="st0" cx="111.8" cy="321.3" r="4"/>
		</g>
	</g>
	<g>
		<g>
			<circle class="st3" cx="211.8" cy="321.3" r="12"/>
			<path class="st2" d="M211.8,337.3c-8.8,0-16-7.2-16-16s7.2-16,16-16s16,7.2,16,16S220.6,337.3,211.8,337.3z M211.8,313.3
				c-4.4,0-8,3.6-8,8s3.6,8,8,8s8-3.6,8-8S216.2,313.3,211.8,313.3z"/>
		</g>
		<g>
			<circle class="st0" cx="211.8" cy="321.3" r="4"/>
		</g>
	</g>
	<g>
		<g>
			<circle class="st3" cx="61.8" cy="321.3" r="12"/>
			<path class="st2" d="M61.8,337.3c-8.8,0-16-7.2-16-16s7.2-16,16-16s16,7.2,16,16S70.6,337.3,61.8,337.3z M61.8,313.3
				c-4.4,0-8,3.6-8,8s3.6,8,8,8s8-3.6,8-8S66.2,313.3,61.8,313.3z"/>
		</g>
		<g>
			<circle class="st0" cx="61.8" cy="321.3" r="4"/>
		</g>
	</g>
	<g>
		<rect x="25.8" y="309.3" class="st3" width="7" height="5"/>
		<path class="st2" d="M32.8,315.8h-7c-0.8,0-1.5-0.7-1.5-1.5v-5c0-0.8,0.7-1.5,1.5-1.5h7c0.8,0,1.5,0.7,1.5,1.5v5
			C34.2,315.1,33.6,315.8,32.8,315.8z M27.2,312.8h4v-2h-4V312.8z"/>
	</g>
	<g>
		<path class="st0" d="M181.8,308.8h-51c-0.8,0-1.5-0.7-1.5-1.5s0.7-1.5,1.5-1.5h51c0.8,0,1.5,0.7,1.5,1.5S182.6,308.8,181.8,308.8z
			"/>
	</g>
	<g>
		<path class="st0" d="M94.2,308.8h-16c-0.8,0-1.5-0.7-1.5-1.5s0.7-1.5,1.5-1.5h16c0.8,0,1.5,0.7,1.5,1.5S95.1,308.8,94.2,308.8z"/>
	</g>
	<g>
		<path class="st2" d="M487.2,313.3h-24c-0.8,0-1.5-0.7-1.5-1.5s0.7-1.5,1.5-1.5h24c0.8,0,1.5,0.7,1.5,1.5S488.1,313.3,487.2,313.3z
			"/>
	</g>
	<g>
		<path class="st0" d="M294.2,283.3c-0.8,0-1.5-0.7-1.5-1.5v-25c0-0.8,0.7-1.5,1.5-1.5s1.5,0.7,1.5,1.5v25
			C295.8,282.6,295.1,283.3,294.2,283.3z"/>
	</g>
	<g>
		<path class="st0" d="M302.2,286.3c-0.8,0-1.5-0.7-1.5-1.5v-10c0-0.8,0.7-1.5,1.5-1.5s1.5,0.7,1.5,1.5v10
			C303.8,285.6,303.1,286.3,302.2,286.3z"/>
	</g>
	<g>
		<path class="st0" d="M306.2,308.3c-0.4,0-0.8-0.1-1.1-0.4c-6.2-6.2-8.3-15.4-8.4-15.7c-0.2-0.8,0.3-1.6,1.1-1.8
			c0.8-0.2,1.6,0.3,1.8,1.1c0,0.1,2,8.7,7.6,14.3c0.6,0.6,0.6,1.5,0,2.1C307,308.2,306.6,308.3,306.2,308.3z"/>
	</g>
	<g>
		<path class="st0" d="M320.2,327.3c-0.2,0-0.3,0-0.5-0.1c-12.3-4.1-20.4-16.1-20.8-16.6c-0.5-0.7-0.3-1.6,0.4-2.1s1.6-0.3,2.1,0.4
			c0.1,0.1,7.9,11.6,19.2,15.4c0.8,0.3,1.2,1.1,0.9,1.9C321.5,326.9,320.9,327.3,320.2,327.3z"/>
	</g>
	<g>
		<path class="st0" d="M330.3,321.3c-0.1,0-0.1,0-0.2,0c-8.4-1.1-13.7-6.2-13.9-6.4c-0.6-0.6-0.6-1.5,0-2.1c0.6-0.6,1.5-0.6,2.1,0
			l0,0c0,0,4.8,4.7,12.1,5.6c0.8,0.1,1.4,0.9,1.3,1.7C331.6,320.8,331,321.3,330.3,321.3z"/>
	</g>
	<g>
		<path class="st0" d="M346.2,329.3h-12c-0.8,0-1.5-0.7-1.5-1.5s0.7-1.5,1.5-1.5h12c0.8,0,1.5,0.7,1.5,1.5S347.1,329.3,346.2,329.3z
			"/>
	</g>
	<g>
		<path class="st0" d="M347.2,321.3h-4c-0.8,0-1.5-0.7-1.5-1.5s0.7-1.5,1.5-1.5h4c0.8,0,1.5,0.7,1.5,1.5S348.1,321.3,347.2,321.3z"
			/>
	</g>
	<g>
		<path class="st0" d="M410.2,331.3h-37c-0.8,0-1.5-0.7-1.5-1.5s0.7-1.5,1.5-1.5h37c0.8,0,1.5,0.7,1.5,1.5S411.1,331.3,410.2,331.3z
			"/>
	</g>
	<g>
		<path class="st0" d="M395.2,322.3h-8c-0.8,0-1.5-0.7-1.5-1.5s0.7-1.5,1.5-1.5h8c0.8,0,1.5,0.7,1.5,1.5S396.1,322.3,395.2,322.3z"
			/>
	</g>
	<g>
		<path class="st0" d="M434.2,326.3h-19c-0.8,0-1.5-0.7-1.5-1.5s0.7-1.5,1.5-1.5h19c0.8,0,1.5,0.7,1.5,1.5S435.1,326.3,434.2,326.3z
			"/>
	</g>
	<g>
		<path class="st0" d="M464.2,319.3h-28c-0.8,0-1.5-0.7-1.5-1.5s0.7-1.5,1.5-1.5h28c0.8,0,1.5,0.7,1.5,1.5S465.1,319.3,464.2,319.3z
			"/>
	</g>
	<g>
		<path class="st0" d="M463.2,331.3h-10c-0.8,0-1.5-0.7-1.5-1.5s0.7-1.5,1.5-1.5h10c0.8,0,1.5,0.7,1.5,1.5S464.1,331.3,463.2,331.3z
			"/>
	</g>
	<g>
		<rect x="67.2" y="27.8" class="st0" width="120" height="10"/>
	</g>
	<g>
		<path class="st2" d="M270.8,210.3h-40c-0.8,0-1.5-0.7-1.5-1.5v-51c0-0.8,0.7-1.5,1.5-1.5h40c0.8,0,1.5,0.7,1.5,1.5v51
			C272.2,209.6,271.6,210.3,270.8,210.3z M232.2,207.3h37v-48h-37V207.3z"/>
	</g>
	<g>
		<path class="st2" d="M350.8,210.3h-40c-0.8,0-1.5-0.7-1.5-1.5v-51c0-0.8,0.7-1.5,1.5-1.5h40c0.8,0,1.5,0.7,1.5,1.5v51
			C352.2,209.6,351.6,210.3,350.8,210.3z M312.2,207.3h37v-48h-37V207.3z"/>
	</g>
	<g>
		<path class="st3" d="M232.2,79.8h14.5c0-8.8,7.2-16,16-16c3,0,5.9,0.9,8.3,2.3c4.3-6.2,11.5-10.3,19.7-10.3c13.3,0,24,10.7,24,24
			h10.5"/>
		<path class="st0" d="M325.2,81.3h-10.5c-0.8,0-1.5-0.7-1.5-1.5c0-12.4-10.1-22.5-22.5-22.5c-7.4,0-14.3,3.6-18.5,9.7
			c-0.5,0.7-1.3,0.8-2,0.4c-2.3-1.4-4.9-2.1-7.5-2.1c-8,0-14.5,6.5-14.5,14.5c0,0.8-0.7,1.5-1.5,1.5h-14.5c-0.8,0-1.5-0.7-1.5-1.5
			s0.7-1.5,1.5-1.5h13.1c0.8-9,8.3-16,17.4-16c2.7,0,5.4,0.6,7.9,1.9c4.8-6.2,12.3-9.9,20.1-9.9c13.6,0,24.7,10.6,25.5,24h9
			c0.8,0,1.5,0.7,1.5,1.5S326.1,81.3,325.2,81.3z"/>
	</g>
	<g>
		<path class="st3" d="M313.2,39.8h17.8c0-10.9,8.8-19.7,19.7-19.7c3.7,0,7.2,1.1,10.2,2.9c5.3-7.7,14.2-12.7,24.2-12.7
			c16.3,0,29.5,13.2,29.5,29.5h12.9"/>
		<path class="st0" d="M427.6,41.3h-12.9c-0.8,0-1.5-0.7-1.5-1.5c0-15.4-12.6-28-28-28c-9.2,0-17.8,4.5-23,12
			c-0.5,0.7-1.3,0.8-2,0.4c-2.8-1.7-6.1-2.6-9.4-2.6c-10,0-18.2,8.1-18.2,18.2c0,0.8-0.7,1.5-1.5,1.5h-17.8c-0.8,0-1.5-0.7-1.5-1.5
			s0.7-1.5,1.5-1.5h16.4c0.8-11,9.9-19.7,21.1-19.7c3.4,0,6.7,0.8,9.8,2.4c5.9-7.7,15-12.2,24.7-12.2c16.6,0,30.2,13.1,31,29.5h11.4
			c0.8,0,1.5,0.7,1.5,1.5S428.4,41.3,427.6,41.3z"/>
	</g>
	<g>
		<path class="st0" d="M25.2,258.3h-21c-0.8,0-1.5-0.7-1.5-1.5s0.7-1.5,1.5-1.5h21c0.8,0,1.5,0.7,1.5,1.5S26.1,258.3,25.2,258.3z"/>
	</g>
	<g>
		<path class="st0" d="M21.2,274.3h-10c-0.8,0-1.5-0.7-1.5-1.5s0.7-1.5,1.5-1.5h10c0.8,0,1.5,0.7,1.5,1.5S22.1,274.3,21.2,274.3z"/>
	</g>
	<g>
		<path class="st3" d="M381.9,106.2h-18.2c-1.6,0-2.9-1.3-2.9-2.9l0,0c0-1.6,1.3-2.9,2.9-2.9h18.2c1.6,0,2.9,1.3,2.9,2.9l0,0
			C384.8,104.9,383.5,106.2,381.9,106.2z"/>
		<path class="st2" d="M381.9,107.7h-18.2c-2.4,0-4.4-2-4.4-4.4s2-4.4,4.4-4.4h18.2c2.4,0,4.4,2,4.4,4.4S384.3,107.7,381.9,107.7z
			 M363.6,101.9c-0.8,0-1.4,0.6-1.4,1.4s0.6,1.4,1.4,1.4h18.2c0.8,0,1.4-0.6,1.4-1.4s-0.6-1.4-1.4-1.4H363.6z"/>
	</g>
	<g>
		<circle class="st3" cx="236.8" cy="265.3" r="2"/>
	</g>
	<g>
		<path class="st0" d="M115.9,128c-0.1,0-0.3,0-0.4-0.1c-11.7-3.6-21.1-12.2-25.9-23.5c-0.3-0.8,0-1.6,0.8-2c0.8-0.3,1.6,0,2,0.8
			c4.4,10.5,13.2,18.4,24,21.8c0.8,0.2,1.2,1.1,1,1.9C117.1,127.6,116.5,128,115.9,128z"/>
	</g>
	<g>
		<path class="st0" d="M178.2,210.3h-15c-0.8,0-1.5-0.7-1.5-1.5v-28c0-0.8,0.7-1.5,1.5-1.5h15c0.8,0,1.5,0.7,1.5,1.5v28
			C179.8,209.6,179.1,210.3,178.2,210.3z M164.8,207.3h12v-25h-12V207.3z"/>
	</g>
	<g>
		<path class="st0" d="M162.2,203.3h-11c-0.8,0-1.5-0.7-1.5-1.5s0.7-1.5,1.5-1.5h11c0.8,0,1.5,0.7,1.5,1.5S163.1,203.3,162.2,203.3z
			"/>
	</g>
	<g>
		<path class="st0" d="M190.2,194.3h-12c-0.8,0-1.5-0.7-1.5-1.5s0.7-1.5,1.5-1.5h12c0.8,0,1.5,0.7,1.5,1.5S191.1,194.3,190.2,194.3z
			"/>
	</g>
	<g>
		<path class="st0" d="M185.2,210.3c-0.8,0-1.5-0.7-1.5-1.5v-31.2c0-2.3-1.9-4.2-4.2-4.2s-4.2,1.9-4.2,4.2v3.2
			c0,0.8-0.7,1.5-1.5,1.5s-1.5-0.7-1.5-1.5v-3.2c0-4,3.3-7.2,7.2-7.2s7.2,3.3,7.2,7.2v31.2C186.8,209.6,186.1,210.3,185.2,210.3z"/>
	</g>
	<g>
		<path class="st2" d="M191.2,210.3h-40c-0.8,0-1.5-0.7-1.5-1.5v-51c0-0.8,0.7-1.5,1.5-1.5h40c0.8,0,1.5,0.7,1.5,1.5v51
			C192.8,209.6,192.1,210.3,191.2,210.3z M152.8,207.3h37v-48h-37V207.3z"/>
	</g>
	<g>
		<path class="st0" d="M163.2,182.3c-0.8,0-1.5-0.7-1.5-1.5v-8c0-0.8,0.7-1.5,1.5-1.5s1.5,0.7,1.5,1.5v8
			C164.8,181.6,164.1,182.3,163.2,182.3z"/>
	</g>
	<g>
		<path class="st0" d="M163.5,172.8c-2.9,0-5.2-2.4-5.2-5.2s2.4-5.2,5.2-5.2s5.2,2.4,5.2,5.2S166.4,172.8,163.5,172.8z M163.5,165.3
			c-1.2,0-2.2,1-2.2,2.2s1,2.2,2.2,2.2s2.2-1,2.2-2.2S164.7,165.3,163.5,165.3z"/>
	</g>
	<g>
		<rect x="244.8" y="171.3" class="st3" width="12" height="28"/>
		<path class="st0" d="M256.8,200.8h-12c-0.8,0-1.5-0.7-1.5-1.5v-28c0-0.8,0.7-1.5,1.5-1.5h12c0.8,0,1.5,0.7,1.5,1.5v28
			C258.2,200.1,257.6,200.8,256.8,200.8z M246.2,197.8h9v-25h-9V197.8z"/>
	</g>
	<g>
		<g>
			<circle class="st0" cx="250.8" cy="193.3" r="2"/>
		</g>
		<g>
			<circle class="st0" cx="250.8" cy="185.3" r="2"/>
		</g>
		<g>
			<circle class="st0" cx="250.8" cy="177.3" r="2"/>
		</g>
	</g>
	<g>
		<circle class="st1" cx="330.8" cy="184.3" r="10"/>
		<path class="st2" d="M330.8,195.8c-6.3,0-11.5-5.2-11.5-11.5s5.2-11.5,11.5-11.5s11.5,5.2,11.5,11.5S337.1,195.8,330.8,195.8z
			 M330.8,175.8c-4.7,0-8.5,3.8-8.5,8.5s3.8,8.5,8.5,8.5s8.5-3.8,8.5-8.5S335.4,175.8,330.8,175.8z"/>
	</g>
	<g>
		<line class="st4" x1="426.8" y1="146.3" x2="435.8" y2="125.3"/>
	</g>
	<g>
		<path class="st2" d="M330.2,187.3c-0.3,0-0.7-0.1-0.9-0.3c-0.6-0.5-0.8-1.5-0.2-2.1l4-5c0.5-0.6,1.5-0.8,2.1-0.2
			c0.6,0.5,0.8,1.5,0.2,2.1l-4,5C331.1,187.1,330.7,187.3,330.2,187.3z"/>
	</g>
</g>
</svg>
